<svg xmlns="http://www.w3.org/2000/svg" xmlns:xlink="http://www.w3.org/1999/xlink" viewBox="0 0 33.34 45.73"><defs><style>.cls-1{fill:url(#linear-gradient);}.cls-2{fill:url(#linear-gradient-2);}.cls-3{fill:url(#linear-gradient-3);}.cls-4{fill:url(#linear-gradient-4);}.cls-5{fill:url(#linear-gradient-5);}.cls-6{fill:url(#linear-gradient-6);}.cls-7{fill:url(#linear-gradient-7);}.cls-8{fill:url(#linear-gradient-8);}.cls-9{fill:url(#linear-gradient-9);}.cls-10{fill:url(#linear-gradient-10);}.cls-11{fill:url(#linear-gradient-11);}.cls-12{fill:url(#linear-gradient-12);}.cls-13{fill:url(#linear-gradient-13);}.cls-14{fill:url(#linear-gradient-14);}.cls-15{fill:url(#linear-gradient-15);}.cls-16{fill:url(#linear-gradient-16);}.cls-17{fill:url(#linear-gradient-17);}.cls-18{fill:url(#linear-gradient-18);}.cls-19{fill:url(#linear-gradient-19);}.cls-20{fill:url(#linear-gradient-20);}.cls-21{fill:url(#linear-gradient-21);}.cls-22{fill:url(#linear-gradient-22);}.cls-23{fill:url(#linear-gradient-23);}.cls-24{fill:url(#linear-gradient-24);}.cls-25{fill:url(#linear-gradient-25);}.cls-26{fill:url(#linear-gradient-26);}.cls-27{fill:url(#linear-gradient-27);}.cls-28{fill:url(#linear-gradient-28);}.cls-29{fill:url(#linear-gradient-29);}.cls-30{fill:url(#linear-gradient-30);}.cls-31{fill:url(#linear-gradient-31);}.cls-32{fill:url(#linear-gradient-32);}.cls-33{fill:url(#linear-gradient-33);}.cls-34{fill:url(#linear-gradient-34);}.cls-35{fill:url(#linear-gradient-35);}.cls-36{fill:url(#linear-gradient-36);}.cls-37{fill:url(#linear-gradient-37);}.cls-38{fill:url(#linear-gradient-38);}.cls-39{fill:url(#linear-gradient-39);}.cls-40{fill:url(#linear-gradient-40);}.cls-41{fill:url(#linear-gradient-41);}.cls-42{fill:url(#linear-gradient-42);}.cls-43{fill:url(#linear-gradient-43);}.cls-44{fill:url(#linear-gradient-44);}.cls-45{fill:url(#linear-gradient-45);}.cls-46{fill:url(#linear-gradient-46);}.cls-47{fill:url(#linear-gradient-47);}.cls-48{fill:url(#linear-gradient-48);}.cls-49{fill:url(#linear-gradient-49);}.cls-50{fill:url(#linear-gradient-50);}.cls-51{fill:url(#linear-gradient-51);}.cls-52{fill:url(#linear-gradient-52);}.cls-53{fill:url(#linear-gradient-53);}.cls-54{fill:url(#linear-gradient-54);}.cls-55{fill:url(#linear-gradient-55);}.cls-56{fill:url(#linear-gradient-56);}.cls-57{fill:url(#linear-gradient-57);}.cls-58{fill:url(#linear-gradient-58);}.cls-59{fill:url(#linear-gradient-59);}.cls-60{fill:url(#linear-gradient-60);}.cls-61{fill:url(#linear-gradient-61);}.cls-62{fill:url(#linear-gradient-62);}</style><linearGradient id="linear-gradient" x1="17.87" y1="24.28" x2="22.45" y2="24.28" gradientUnits="userSpaceOnUse"><stop offset="1" stop-color="#0fb"/><stop offset="1" stop-color="#20eabb" stop-opacity="0.88"/><stop offset="1" stop-color="#5ac3bc" stop-opacity="0.65"/><stop offset="1" stop-color="#8da1bc" stop-opacity="0.45"/><stop offset="1" stop-color="#b686bc" stop-opacity="0.29"/><stop offset="1" stop-color="#d671bd" stop-opacity="0.16"/><stop offset="1" stop-color="#ed61bd" stop-opacity="0.07"/><stop offset="1" stop-color="#fa58bd" stop-opacity="0.02"/><stop offset="1" stop-color="#ff55bd" stop-opacity="0"/><stop offset="1" stop-color="#12ff7d" stop-opacity="0.01"/></linearGradient><linearGradient id="linear-gradient-2" x1="24.41" y1="39.25" x2="28.59" y2="39.25" xlink:href="#linear-gradient"/><linearGradient id="linear-gradient-3" x1="24.02" y1="39.24" x2="28.96" y2="39.24" xlink:href="#linear-gradient"/><linearGradient id="linear-gradient-4" x1="29.67" y1="35.08" x2="29.73" y2="35.08" xlink:href="#linear-gradient"/><linearGradient id="linear-gradient-5" x1="29.32" y1="35.09" x2="30.08" y2="35.09" xlink:href="#linear-gradient"/><linearGradient id="linear-gradient-6" x1="30.81" y1="27.73" x2="30.83" y2="27.73" xlink:href="#linear-gradient"/><linearGradient id="linear-gradient-7" x1="29.73" y1="35.01" x2="29.73" y2="35.01" xlink:href="#linear-gradient"/><linearGradient id="linear-gradient-8" x1="29.38" y1="30.33" x2="31.17" y2="30.33" xlink:href="#linear-gradient"/><linearGradient id="linear-gradient-9" x1="18.99" y1="22.11" x2="22.45" y2="22.11" xlink:href="#linear-gradient"/><linearGradient id="linear-gradient-10" x1="28.15" y1="39.15" x2="31.13" y2="39.15" xlink:href="#linear-gradient"/><linearGradient id="linear-gradient-11" x1="27.72" y1="39.14" x2="31.51" y2="39.14" xlink:href="#linear-gradient"/><linearGradient id="linear-gradient-12" x1="20.87" y1="19.94" x2="22.45" y2="19.94" xlink:href="#linear-gradient"/><linearGradient id="linear-gradient-13" x1="23.33" y1="34.26" x2="26.2" y2="34.26" xlink:href="#linear-gradient"/><linearGradient id="linear-gradient-14" x1="23.03" y1="34.27" x2="26.54" y2="34.27" xlink:href="#linear-gradient"/><linearGradient id="linear-gradient-15" x1="20.87" y1="26.44" x2="22.45" y2="26.44" xlink:href="#linear-gradient"/><linearGradient id="linear-gradient-16" x1="22.57" y1="32.55" x2="24.21" y2="32.55" xlink:href="#linear-gradient"/><linearGradient id="linear-gradient-17" x1="22.28" y1="32.56" x2="24.55" y2="32.56" xlink:href="#linear-gradient"/><linearGradient id="linear-gradient-18" x1="24.01" y1="29.08" x2="24.33" y2="29.08" xlink:href="#linear-gradient"/><linearGradient id="linear-gradient-19" x1="18.65" y1="28.61" x2="22.45" y2="28.61" xlink:href="#linear-gradient"/><linearGradient id="linear-gradient-20" x1="5.76" y1="38.32" x2="25.32" y2="38.32" xlink:href="#linear-gradient"/><linearGradient id="linear-gradient-21" x1="2.51" y1="32.31" x2="3.46" y2="32.31" xlink:href="#linear-gradient"/><linearGradient id="linear-gradient-22" x1="2.17" y1="32.35" x2="3.81" y2="32.35" xlink:href="#linear-gradient"/><linearGradient id="linear-gradient-23" x1="4.54" y1="37.27" x2="4.62" y2="37.27" xlink:href="#linear-gradient"/><linearGradient id="linear-gradient-24" x1="4.17" y1="37.27" x2="4.99" y2="37.27" xlink:href="#linear-gradient"/><linearGradient id="linear-gradient-25" x1="4.26" y1="39.91" x2="12.21" y2="39.91" xlink:href="#linear-gradient"/><linearGradient id="linear-gradient-26" x1="12.99" y1="41.92" x2="25.77" y2="41.92" xlink:href="#linear-gradient"/><linearGradient id="linear-gradient-27" x1="0.54" y1="34.87" x2="2.05" y2="34.87" xlink:href="#linear-gradient"/><linearGradient id="linear-gradient-28" x1="0.2" y1="34.87" x2="2.43" y2="34.87" xlink:href="#linear-gradient"/><linearGradient id="linear-gradient-29" x1="3.8" y1="42.82" x2="24.84" y2="42.82" xlink:href="#linear-gradient"/><linearGradient id="linear-gradient-30" x1="6.91" y1="33.63" x2="9.27" y2="33.63" xlink:href="#linear-gradient"/><linearGradient id="linear-gradient-31" x1="6.57" y1="33.64" x2="9.57" y2="33.64" xlink:href="#linear-gradient"/><linearGradient id="linear-gradient-32" x1="9.99" y1="37.99" x2="21.85" y2="37.99" xlink:href="#linear-gradient"/><linearGradient id="linear-gradient-33" x1="9.23" y1="33.43" x2="11.21" y2="33.43" xlink:href="#linear-gradient"/><linearGradient id="linear-gradient-34" x1="8.89" y1="33.47" x2="11.47" y2="33.47" xlink:href="#linear-gradient"/><linearGradient id="linear-gradient-35" x1="11.68" y1="36" x2="22.01" y2="36" xlink:href="#linear-gradient"/><linearGradient id="linear-gradient-36" x1="4.33" y1="23.95" x2="5.95" y2="23.95" xlink:href="#linear-gradient"/><linearGradient id="linear-gradient-37" x1="3.48" y1="8.72" x2="6.6" y2="8.72" xlink:href="#linear-gradient"/><linearGradient id="linear-gradient-38" x1="3.13" y1="8.73" x2="6.98" y2="8.73" xlink:href="#linear-gradient"/><linearGradient id="linear-gradient-39" x1="2.82" y1="13.43" x2="2.85" y2="13.43" xlink:href="#linear-gradient"/><linearGradient id="linear-gradient-40" x1="2.48" y1="13.43" x2="3.2" y2="13.43" xlink:href="#linear-gradient"/><linearGradient id="linear-gradient-41" x1="2.51" y1="17.47" x2="2.82" y2="17.47" xlink:href="#linear-gradient"/><linearGradient id="linear-gradient-42" x1="2.17" y1="17.45" x2="3.17" y2="17.45" xlink:href="#linear-gradient"/><linearGradient id="linear-gradient-43" x1="2.51" y1="28.53" x2="3.16" y2="28.53" xlink:href="#linear-gradient"/><linearGradient id="linear-gradient-44" x1="2.17" y1="28.56" x2="3.5" y2="28.56" xlink:href="#linear-gradient"/><linearGradient id="linear-gradient-45" x1="1.02" y1="9.5" x2="3" y2="9.5" xlink:href="#linear-gradient"/><linearGradient id="linear-gradient-46" x1="0.66" y1="9.51" x2="3.39" y2="9.51" xlink:href="#linear-gradient"/><linearGradient id="linear-gradient-47" x1="0.34" y1="23.75" x2="0.52" y2="23.75" xlink:href="#linear-gradient"/><linearGradient id="linear-gradient-48" x1="0" y1="23.76" x2="0.86" y2="23.76" xlink:href="#linear-gradient"/><linearGradient id="linear-gradient-49" x1="6.87" y1="13.26" x2="8.73" y2="13.26" xlink:href="#linear-gradient"/><linearGradient id="linear-gradient-50" x1="6.53" y1="13.26" x2="9.05" y2="13.26" xlink:href="#linear-gradient"/><linearGradient id="linear-gradient-51" x1="6.85" y1="24.55" x2="6.96" y2="24.55" xlink:href="#linear-gradient"/><linearGradient id="linear-gradient-52" x1="6.51" y1="24.53" x2="7.3" y2="24.53" xlink:href="#linear-gradient"/><linearGradient id="linear-gradient-53" x1="9.01" y1="14.74" x2="9.97" y2="14.74" xlink:href="#linear-gradient"/><linearGradient id="linear-gradient-54" x1="8.67" y1="14.79" x2="10.29" y2="14.79" xlink:href="#linear-gradient"/><linearGradient id="linear-gradient-55" x1="9.01" y1="25.47" x2="9.42" y2="25.47" xlink:href="#linear-gradient"/><linearGradient id="linear-gradient-56" x1="8.67" y1="25.41" x2="9.75" y2="25.41" xlink:href="#linear-gradient"/><linearGradient id="linear-gradient-57" x1="26.05" y1="6.03" x2="26.16" y2="6.03" xlink:href="#linear-gradient"/><linearGradient id="linear-gradient-58" x1="25.74" y1="5.85" x2="26.05" y2="5.85" xlink:href="#linear-gradient"/><linearGradient id="linear-gradient-59" x1="4.87" y1="5.22" x2="16.75" y2="5.22" xlink:href="#linear-gradient"/><linearGradient id="linear-gradient-60" x1="5.01" y1="6.01" x2="28.7" y2="6.01" xlink:href="#linear-gradient"/><linearGradient id="linear-gradient-61" x1="17.62" y1="5.24" x2="28.17" y2="5.24" xlink:href="#linear-gradient"/><linearGradient id="linear-gradient-62" x1="17.53" y1="27.37" x2="33.34" y2="27.37" xlink:href="#linear-gradient"/></defs><title>Asset 5</title><g id="Layer_2" data-name="Layer 2"><g id="Layer_1-2" data-name="Layer 1"><line class="cls-1" x1="17.87" y1="24.28" x2="22.45" y2="24.28"/><path class="cls-2" d="M24.41,41.27a12.24,12.24,0,0,0,4.18-4"/><path class="cls-3" d="M24.05,41.47a.38.38,0,0,0,.53.1,12.68,12.68,0,0,0,4.3-4.16.37.37,0,0,0-.07-.53.38.38,0,0,0-.51.17A12,12,0,0,1,24.24,41,.38.38,0,0,0,24.05,41.47Z"/><line class="cls-4" x1="29.73" y1="35.01" x2="29.67" y2="35.15"/><path class="cls-5" d="M29.51,35.53a.38.38,0,0,0,.48-.24l.05-.15a.36.36,0,0,0-.17-.5.37.37,0,0,0-.46.25l-.06.13A.4.4,0,0,0,29.51,35.53Z"/><path class="cls-6" d="M30.81,29.69c0-.37,0-.65,0-1.16V25.78"/><path class="cls-7" d="M29.73,35"/><path class="cls-8" d="M29.57,35.39a.37.37,0,0,0,.47-.25,15.76,15.76,0,0,0,1-4.35c0-.36.06-.73.07-1.09s0-.65,0-1.19V25.62c0-.3-.15-.45-.34-.34a.79.79,0,0,0-.35.65v2.62c0,.48,0,.77,0,1.13s0,.69-.07,1a15,15,0,0,1-1,4.17A.39.39,0,0,0,29.57,35.39Z"/><line class="cls-9" x1="18.99" y1="22.11" x2="22.45" y2="22.11"/><path class="cls-10" d="M28.15,41.16a14.54,14.54,0,0,0,3-4"/><path class="cls-11" d="M27.79,41.49c.12.14.39.1.59-.09a15.09,15.09,0,0,0,3.06-4.1.43.43,0,0,0-.1-.58c-.17-.08-.39.05-.51.27a14.47,14.47,0,0,1-2.92,3.92A.43.43,0,0,0,27.79,41.49Z"/><line class="cls-12" x1="20.87" y1="19.94" x2="22.45" y2="19.94"/><path class="cls-13" d="M23.33,36.75a8.92,8.92,0,0,0,2.87-5"/><path class="cls-14" d="M23.12,36.92a.31.31,0,0,0,.43.09,9.25,9.25,0,0,0,3-5.17.35.35,0,0,0-.67-.15,8.55,8.55,0,0,1-2.76,4.8A.31.31,0,0,0,23.12,36.92Z"/><line class="cls-15" x1="20.87" y1="26.44" x2="22.45" y2="26.44"/><path class="cls-16" d="M22.57,34.46a7.38,7.38,0,0,0,1.64-3.82"/><path class="cls-17" d="M22.44,34.61c.14.13.31.17.39.08a7.81,7.81,0,0,0,1.72-4c0-.13-.12-.26-.31-.28s-.35.06-.37.19a7.06,7.06,0,0,1-1.56,3.65C22.24,34.32,22.3,34.48,22.44,34.61Z"/><path class="cls-18" d="M24.31,29.55l0-.71v-.18s0-.06,0-.05H24"/><line class="cls-19" x1="18.65" y1="28.61" x2="22.45" y2="28.61"/><path class="cls-20" d="M5.94,35.3a.34.34,0,0,0-.14.47,10.44,10.44,0,0,0,3.87,3.88,13.12,13.12,0,0,0,5.22,1.64A15.68,15.68,0,0,0,20.35,41a11.36,11.36,0,0,0,4.86-2.53.35.35,0,0,0,0-.49.35.35,0,0,0-.48,0,10.68,10.68,0,0,1-4.57,2.38,15.2,15.2,0,0,1-5.21.3A10.82,10.82,0,0,1,6.4,35.43.34.34,0,0,0,5.94,35.3Z"/><path class="cls-21" d="M2.51,29.54a14.59,14.59,0,0,0,1,5.55"/><path class="cls-22" d="M2.51,29.2a.34.34,0,0,0-.34.34,15,15,0,0,0,1,5.68.38.38,0,0,0,.48.25A.39.39,0,0,0,3.78,35a14.19,14.19,0,0,1-.92-5.42A.35.35,0,0,0,2.51,29.2Z"/><line class="cls-23" x1="4.62" y1="37.34" x2="4.54" y2="37.21"/><path class="cls-24" d="M4.32,36.85a.39.39,0,0,0-.07.54l.09.13a.38.38,0,0,0,.52.16.39.39,0,0,0,0-.53L4.83,37A.39.39,0,0,0,4.32,36.85Z"/><path class="cls-25" d="M4.4,37a.37.37,0,0,0-.06.53A12.17,12.17,0,0,0,7.6,40.89a13.82,13.82,0,0,0,4.12,2,.37.37,0,0,0,.48-.21.37.37,0,0,0-.29-.44A13.49,13.49,0,0,1,8,40.33a11.66,11.66,0,0,1-3.08-3.18A.38.38,0,0,0,4.4,37Z"/><path class="cls-26" d="M13,42.84a.37.37,0,0,0,.33.41,18.61,18.61,0,0,0,6.23.1,14.16,14.16,0,0,0,6-2.43.35.35,0,1,0-.4-.56,13.27,13.27,0,0,1-5.74,2.31,18,18,0,0,1-6-.09A.37.37,0,0,0,13,42.84Z"/><path class="cls-27" d="M.54,32.51a15.15,15.15,0,0,0,1.51,4.71"/><path class="cls-28" d="M.48,32.06c-.19,0-.31.24-.28.5a15.61,15.61,0,0,0,1.55,4.82c.12.25.37.37.53.27a.43.43,0,0,0,.08-.58A14.87,14.87,0,0,1,.88,32.46C.85,32.21.67,32,.48,32.06Z"/><path class="cls-29" d="M3.89,40c-.14.12-.11.39.08.6a16.27,16.27,0,0,0,10,5,21.69,21.69,0,0,0,5.22,0,16.85,16.85,0,0,0,5.36-1.54c.24-.12.37-.35.28-.52a.44.44,0,0,0-.58-.1,16.18,16.18,0,0,1-5.14,1.48,20.8,20.8,0,0,1-5.05,0,15.66,15.66,0,0,1-9.57-4.76A.44.44,0,0,0,3.89,40Z"/><path class="cls-30" d="M6.91,31.05a8.35,8.35,0,0,0,2.36,5.17"/><path class="cls-31" d="M6.88,30.76a.31.31,0,0,0-.31.32A8.72,8.72,0,0,0,9,36.46a.3.3,0,0,0,.43-.06.32.32,0,0,0,0-.43,8,8,0,0,1-2.26-5A.33.33,0,0,0,6.88,30.76Z"/><path class="cls-32" d="M10.07,36.91a.32.32,0,0,0,0,.44,11,11,0,0,0,5.67,1.84,11.83,11.83,0,0,0,6-1,.3.3,0,0,0,.09-.43.32.32,0,0,0-.39-.18,11.25,11.25,0,0,1-5.61.93,10.22,10.22,0,0,1-5.31-1.72A.33.33,0,0,0,10.07,36.91Z"/><path class="cls-33" d="M9.23,31.82a5.85,5.85,0,0,0,2,3.23"/><path class="cls-34" d="M9.18,31.61c-.18,0-.31.17-.28.29A6.1,6.1,0,0,0,11,35.31c.09.08.26,0,.37-.14s.14-.32.06-.39a5.55,5.55,0,0,1-1.86-3C9.54,31.63,9.37,31.57,9.18,31.61Z"/><path class="cls-35" d="M11.76,35.45c-.1.16-.1.34,0,.4a9.79,9.79,0,0,0,5.3,1.2A8.1,8.1,0,0,0,22,35.51c.09-.07.07-.24-.05-.39s-.29-.21-.37-.15A7.46,7.46,0,0,1,17,36.37a9.17,9.17,0,0,1-4.93-1.11C12,35.2,11.86,35.29,11.76,35.45Z"/><path class="cls-36" d="M5.17,13a.33.33,0,0,0-.41.25,14.63,14.63,0,0,0-.4,2.72c0,.92,0,1.8,0,2.7V29.37a12.64,12.64,0,0,0,1,5.38.33.33,0,0,0,.45.18.35.35,0,0,0,.17-.45A12,12,0,0,1,5,29.37V18.62c0-.89,0-1.8,0-2.67a14.18,14.18,0,0,1,.37-2.59A.34.34,0,0,0,5.17,13Z"/><path class="cls-37" d="M6.6,6.3a13.17,13.17,0,0,0-3.12,4.84"/><path class="cls-38" d="M6.9,6a.39.39,0,0,0-.54,0,13.56,13.56,0,0,0-3.2,5,.37.37,0,0,0,.19.5.37.37,0,0,0,.45-.26,12.94,12.94,0,0,1,3-4.72A.38.38,0,0,0,6.9,6Z"/><line class="cls-39" x1="2.82" y1="13.5" x2="2.85" y2="13.36"/><path class="cls-40" d="M2.93,13a.36.36,0,0,0-.41.32l0,.15a.36.36,0,0,0,.26.45.37.37,0,0,0,.41-.32l0-.15A.37.37,0,0,0,2.93,13Z"/><path class="cls-41" d="M2.82,13.5a17.54,17.54,0,0,0-.27,2.15c0,.35,0,.71,0,1.06v4.73"/><path class="cls-42" d="M2.9,13.11a.37.37,0,0,0-.41.33,18.22,18.22,0,0,0-.28,2.19c0,.36,0,.72,0,1.08v4.73a.35.35,0,0,0,.34.35.35.35,0,0,0,.35-.35V16.71c0-.34,0-.69,0-1a16.76,16.76,0,0,1,.27-2.1A.38.38,0,0,0,2.9,13.11Z"/><path class="cls-43" d="M2.51,22.83v6.75c0,.44,0,1,.05,1.52a13.73,13.73,0,0,0,.6,3.13"/><path class="cls-44" d="M2.51,22.49a.34.34,0,0,0-.34.34v6.75c0,.44,0,1,.05,1.55a13.9,13.9,0,0,0,.61,3.2.39.39,0,0,0,.46.29.41.41,0,0,0,.19-.5,13.46,13.46,0,0,1-.58-3c0-.49,0-1.05,0-1.49V22.83A.35.35,0,0,0,2.51,22.49Z"/><path class="cls-45" d="M3,7.29a16,16,0,0,0-2,4.43"/><path class="cls-46" d="M3.27,6.89c-.15-.11-.41,0-.55.21a16.12,16.12,0,0,0-2,4.53.4.4,0,0,0,.21.53c.19.05.38-.11.45-.35A15.56,15.56,0,0,1,3.29,7.48.44.44,0,0,0,3.27,6.89Z"/><path class="cls-47" d="M.41,15.15c-.12,1.87,0,3-.06,4.41V29.72a17.3,17.3,0,0,0,.17,2.63"/><path class="cls-48" d="M.45,14.71c-.18,0-.35.17-.38.41C0,17,0,18.16,0,19.56V29.72A19.56,19.56,0,0,0,.18,32.4c0,.26.23.44.41.41s.3-.26.27-.51a16.59,16.59,0,0,1-.17-2.58V19.56c0-1.4-.06-2.56.06-4.38A.4.4,0,0,0,.45,14.71Z"/><path class="cls-49" d="M8.73,10.44a10.24,10.24,0,0,0-1.86,5.64"/><path class="cls-50" d="M8.89,10.22a.31.31,0,0,0-.44,0,10.65,10.65,0,0,0-1.92,5.83.32.32,0,0,0,.33.32.33.33,0,0,0,.35-.28A10,10,0,0,1,9,10.64.31.31,0,0,0,8.89,10.22Z"/><path class="cls-51" d="M6.85,17.67V30A10.17,10.17,0,0,0,7,31.44"/><path class="cls-52" d="M6.85,17.33a.34.34,0,0,0-.34.34V30a10.88,10.88,0,0,0,.11,1.52.31.31,0,0,0,.38.23.34.34,0,0,0,.3-.33A11,11,0,0,1,7.19,30V17.67A.34.34,0,0,0,6.85,17.33Z"/><path class="cls-53" d="M10,12.53A9.23,9.23,0,0,0,9,17"/><path class="cls-54" d="M10.07,12.34c-.16-.09-.34-.08-.4,0a9.47,9.47,0,0,0-1,4.58.35.35,0,1,0,.69,0,8.78,8.78,0,0,1,.91-4.26C10.33,12.59,10.24,12.44,10.07,12.34Z"/><path class="cls-55" d="M9,18.47V30a7.71,7.71,0,0,0,.4,2.45"/><path class="cls-56" d="M9,18.13a.34.34,0,0,0-.34.34V30a7.83,7.83,0,0,0,.42,2.55c0,.12.22.15.39.08s.29-.2.25-.3A7.54,7.54,0,0,1,9.36,30V18.47A.35.35,0,0,0,9,18.13Z"/><line class="cls-57" x1="26.05" y1="5.98" x2="26.16" y2="6.08"/><line class="cls-58" x1="25.74" y1="5.72" x2="26.05" y2="5.98"/><path class="cls-59" d="M16.75,2.53a.37.37,0,0,0-.4-.34A15.43,15.43,0,0,0,10.1,3.51,13.1,13.1,0,0,0,5,7.66.39.39,0,0,0,5,8.2a.4.4,0,0,0,.52-.14,12.33,12.33,0,0,1,4.87-3.93,14.74,14.74,0,0,1,6-1.25A.38.38,0,0,0,16.75,2.53Z"/><path class="cls-60" d="M28.7,7.12A5.15,5.15,0,0,0,26.4,3,16.51,16.51,0,0,0,21.21.61,17.78,17.78,0,0,0,15.7,0,16.44,16.44,0,0,0,5.2,4.14a.44.44,0,0,0-.12.59.44.44,0,0,0,.58-.08,15.13,15.13,0,0,1,7-3.55A18.13,18.13,0,0,1,16.31.69,17.18,17.18,0,0,1,20.06,1a.85.85,0,0,1,.77,1c-.19.59-.73.68-1.39.49a6.06,6.06,0,0,1,1.1.3c-.47,0-1.14,0-1.17.15s.56.27,2.49.92a.75.75,0,0,1,.49,1h0a.77.77,0,0,1-1,.37,14,14,0,0,0-8.42-.44,11,11,0,0,0-6.77,5,.32.32,0,0,0,.12.47.34.34,0,0,0,.46-.12,10.33,10.33,0,0,1,5.72-4.45,13.63,13.63,0,0,1,7.36-.19.69.69,0,0,1,.46.91h0a.73.73,0,0,1-.84.52,12.24,12.24,0,0,0-5.29-.15A9.39,9.39,0,0,0,9.58,9a.31.31,0,0,0,0,.44.33.33,0,0,0,.43.07,8.48,8.48,0,0,1,3.45-1.88,11.86,11.86,0,0,1,4.17-.34.65.65,0,0,1,.48.81c-.07.4-.35.69-.63.67a10.71,10.71,0,0,0-2.26,0,8.28,8.28,0,0,0-2.06.49,6.66,6.66,0,0,0-3.06,2.34c-.06.09,0,.26.17.36s.33.12.39,0a6.35,6.35,0,0,1,4.64-2.54,10.9,10.9,0,0,1,1.61-.07,8.67,8.67,0,0,1,1.48.19A7.35,7.35,0,0,1,21,10.68a4.05,4.05,0,0,0,2.47.49,7.82,7.82,0,0,0,3.38-.89h0A3.56,3.56,0,0,0,28.7,7.12Z"/><path class="cls-61" d="M28,8.17a.35.35,0,0,0,.05-.5,13.56,13.56,0,0,0-4.51-3.8A15,15,0,0,0,18,2.25a.34.34,0,1,0-.06.68,14.25,14.25,0,0,1,5.31,1.55,12.88,12.88,0,0,1,4.29,3.61A.36.36,0,0,0,28,8.17Z"/><path class="cls-62" d="M27.77,34.94a12.54,12.54,0,0,0,1-3.49A21.15,21.15,0,0,0,29,27.77V24c-1.23,0-2.53,0-3.79,0a.71.71,0,0,1-.73-.74h0c0-.4.51-.74,1.09-.74h4.85c.1,0,0,.08.06.14V24c0,.26.15.36.35.23a1,1,0,0,0,.34-.76V21.92c0-.06,0-.18-.07-.15H25.74c-.62,0-1.09-.33-1.07-.74h0c0-.4.66-.73,1.43-.73h6.24c.1,0,.27,0,.31,0V29c0,.31,0,.61,0,.92a18.55,18.55,0,0,1-.55,3.78.41.41,0,0,0,.21.52c.18.06.39-.1.46-.35a19.69,19.69,0,0,0,.47-2.67c.05-.44.08-.88.1-1.31V19.62s-.07,0-.11,0H20.87a.35.35,0,0,0,0,.69h.84a.74.74,0,0,1,.74.73h0a.74.74,0,0,1-.74.74H19a.34.34,0,0,0,0,.68h2.72a.74.74,0,0,1,.74.74h0a.74.74,0,0,1-.74.74H17.87a.34.34,0,0,0,0,.68h3.84a.74.74,0,0,1,0,1.48h-.84a.34.34,0,0,0-.34.34.34.34,0,0,0,.34.35h.84a.74.74,0,0,1,.74.74h0a.74.74,0,0,1-.74.74H18.65a.35.35,0,1,0,0,.69H24v.57c0,.14.13.26.33.27s.35-.09.35-.23l0-.66v-.5s0-.13,0-.14h-.49s-.07-.33,0-.74h0c0-.41.2-.74.4-.74h1.64s0,0,0,.06v1.71c0,.24,0,1.09-.06,1.75a.31.31,0,0,0,.31.32.31.31,0,0,0,.37-.26c.13-1.65,0-2.38.07-3.43v-.75s0-.07,0-.09H24.68c-.24,0-.41-.33-.39-.74a.78.78,0,0,1,.75-.74c1.09,0,2.21,0,3.28,0v3.29a21,21,0,0,1-.19,3.42,11.85,11.85,0,0,1-1,3.3.35.35,0,0,0,.16.46A.35.35,0,0,0,27.77,34.94Z"/></g></g></svg>